<svg id="圖層_1" data-name="圖層 1" xmlns="http://www.w3.org/2000/svg" viewBox="0 0 15 12.2"><defs><style>.cls-1{fill:#fff;}</style></defs><path id="Path_44" data-name="Path 44" class="cls-1" d="M22.21,5.63a.66.66,0,0,1,0,.94L16.78,12a.68.68,0,0,1-1,0l-.63-.63a.66.66,0,0,1,0-.95L19.5,6.1,15.2,1.78a.66.66,0,0,1,0-.95L15.83.2a.66.66,0,0,1,1,0l5.43,5.43Z"/><path id="Path_44-2" data-name="Path 44" class="cls-1" d="M7.79,5.63,13.22.2a.66.66,0,0,1,.95,0l.63.63a.66.66,0,0,1,0,1L10.5,6.1l4.3,4.32a.66.66,0,0,1,0,.95l-.63.63a.68.68,0,0,1-.95,0L7.79,6.57a.66.66,0,0,1,0-.94Z"/><path id="Path_45" data-name="Path 45" class="cls-1" d="M.2,5.63,5.63.2a.65.65,0,0,1,.94,0l.64.63a.68.68,0,0,1,0,1L2.9,6.1l4.31,4.32a.68.68,0,0,1,0,.95L6.57,12a.66.66,0,0,1-.94,0L.2,6.57a.65.65,0,0,1,0-.94Z"/></svg>