<svg id="圖層_1" data-name="圖層 1" xmlns="http://www.w3.org/2000/svg" viewBox="0 0 15 12.2"><defs><style>.cls-1{fill:#fff;}</style></defs><path id="Path_44" data-name="Path 44" class="cls-1" d="M7.21,5.63a.66.66,0,0,1,0,.94L1.78,12a.68.68,0,0,1-.95,0L.2,11.37a.66.66,0,0,1,0-.95L4.5,6.1.2,1.78A.66.66,0,0,1,.2.83L.83.2a.66.66,0,0,1,1,0L7.21,5.63Z"/><path id="Path_45" data-name="Path 45" class="cls-1" d="M14.8,5.63a.65.65,0,0,1,0,.94L9.37,12a.66.66,0,0,1-.94,0l-.64-.63a.68.68,0,0,1,0-.95L12.1,6.1,7.79,1.78a.68.68,0,0,1,0-.95L8.43.2a.65.65,0,0,1,.94,0L14.8,5.63Z"/></svg>