<?xml version="1.0" encoding="utf-8"?>
<!-- Generator: Adobe Illustrator 25.2.1, SVG Export Plug-In . SVG Version: 6.00 Build 0)  -->
<svg version="1.1" id="圖層_1" xmlns="http://www.w3.org/2000/svg" xmlns:xlink="http://www.w3.org/1999/xlink" x="0px" y="0px"
	 viewBox="0 0 20 17" style="enable-background:new 0 0 20 17;" xml:space="preserve">
<path d="M0,2.4V0.7C0,0.3,0.3,0,0.7,0c0,0,0,0,0,0h18.6C19.7,0,20,0.3,20,0.6c0,0,0,0,0,0v1.7c0,0.4-0.3,0.7-0.6,0.7c0,0,0,0,0,0
	H0.7C0.3,3.1,0,2.8,0,2.4C0,2.4,0,2.4,0,2.4L0,2.4z M0,9.4V7.6c0-0.4,0.3-0.7,0.7-0.7c0,0,0,0,0,0h18.6c0.4,0,0.7,0.3,0.7,0.6
	c0,0,0,0,0,0v1.7c0,0.4-0.3,0.7-0.6,0.7c0,0,0,0,0,0H0.7C0.4,10.1,0.1,9.9,0,9.6c0,0,0,0,0,0C0,9.5,0,9.5,0,9.4z M0,16.3v-1.7
	c0-0.4,0.3-0.7,0.7-0.7c0,0,0,0,0,0h18.6c0.4,0,0.7,0.3,0.7,0.6c0,0,0,0,0,0v1.7c0,0.4-0.3,0.7-0.6,0.7c0,0,0,0,0,0H0.7
	C0.3,17,0,16.7,0,16.3C0,16.3,0,16.3,0,16.3L0,16.3z"/>
</svg>
