<svg id="圖層_1" data-name="圖層 1" xmlns="http://www.w3.org/2000/svg" viewBox="0 0 550 305"><defs><style>.cls-1{fill-rule:evenodd;}</style></defs><title>logo</title><path d="M11.36,147.45a81,81,0,0,1,2.93,16.62q.39,6.83-3.74,15.77-2.41,3.2-4.11,5.34a5,5,0,0,1-1-.47l-.17-1c-.06-.35-.13-.67-.2-1q5.57-7.73,6.66-12.89,1.16-5.47-1.22-14.44-1-2.34-5.63-11.23a71,71,0,0,1-5-11.49,5.27,5.27,0,0,1,2.38-2.45c.71-.21,1.36.1,1.94,1q1.67,2.47,3.32,5.31c.94,2.43,1.63,4.25,2.08,5.47Q10.71,145,11.36,147.45Z"/><path d="M60.14,149.63A6.89,6.89,0,0,1,57,152.2a2.7,2.7,0,0,1-2.74-.7,63.09,63.09,0,0,0-5.84-4.57c-.65.2-1.27,1.13-1.86,2.77a41.05,41.05,0,0,1-1.83,4.55,10,10,0,0,1-6.42,5.28A9.88,9.88,0,0,1,30,158.3q-1.9,0-4.59-5.44a2,2,0,0,1,.29-2.1,13.85,13.85,0,0,1,1.9-1.29,6.05,6.05,0,0,1,2.84,3.46,6,6,0,0,1,.19.81q.48,2.79,1.94,3.15a12.59,12.59,0,0,0,6.4.29,3.67,3.67,0,0,0,2.43-2.07q1.2-2.79,4.44-9.72a13.19,13.19,0,0,1,2.77-1.08,62.82,62.82,0,0,0,6.61,3.91,22.63,22.63,0,0,1,2.83-.26A2.64,2.64,0,0,1,60.14,149.63Z"/><path d="M80.78,150.66a5.67,5.67,0,0,1-3.1,3.68,3.19,3.19,0,0,1-.41-.81c1.27-1.21,1.74-2.31,1.43-3.32q-.84-2.72-7.36-5.2L67,143.36a8.3,8.3,0,0,1-3.21-3.79,3.32,3.32,0,0,1,.76-3.21A59.75,59.75,0,0,1,71,129.7c1.73.63,2.71,1.32,2.93,2.07q.65,2.09-4,4.81a24.32,24.32,0,0,0-2.67,1.73,1.35,1.35,0,0,0,0,2,1.79,1.79,0,0,0,1.83.67,32,32,0,0,1,7.36,3.09A12.08,12.08,0,0,1,80.78,150.66Z"/><path d="M118.84,137.14a9.18,9.18,0,0,1-4.76,3.57q-6.47,2-14-2.52a21.47,21.47,0,0,1-5.1-4.05,13.18,13.18,0,0,0-4.84,3.4,15.33,15.33,0,0,1-3.67,3.1,4.57,4.57,0,0,1-1.51-2,1.63,1.63,0,0,1,0-1.11q.92-2.48,5.89-4.07,2.2-.72,3.13-1-2.24-3.77-4.8-8.74a17.41,17.41,0,0,1-1.09-2.8,18.59,18.59,0,0,1-.57-2.48c-.27-1.66.15-2.83,1.27-3.53a11,11,0,0,1,3,5.27c.2.65.46,1.64.76,3s.56,2.32.75,3a20.49,20.49,0,0,0,2.25,5.06,66.14,66.14,0,0,0,8.48-3.52q6-2.9,8.32-3.83c.64.26,1,.54,1.1.83s-.28.85-1.21,1.31a32.43,32.43,0,0,1-4.8,1.93l-4.92,2.49-4.9,2.45a19.38,19.38,0,0,0,8,5.2,16.4,16.4,0,0,0,9.47-.43A15.7,15.7,0,0,1,117,136.4a2.57,2.57,0,0,1,.51-.25Q118.43,135.84,118.84,137.14Z"/><path d="M172.58,102.45q0,.33-6.9,4.36l-4.87,2.86q-2,1.18-2.53,1.43a27.86,27.86,0,0,0,3.39,6.91c.8,1.19,2.24,3.37,4.3,6.5a31.56,31.56,0,0,1,3.8,7.72,9.81,9.81,0,0,1,.12,5.72,6.4,6.4,0,0,1-1.1.53q-5.48-4.9-9.3-5.18c-.14-.33-.33-.87-.57-1.63a7.55,7.55,0,0,1,3.52,0,5.68,5.68,0,0,0,2.92-.19,9.12,9.12,0,0,0,.9-.34,82.41,82.41,0,0,0-4.78-10.46q-4-7.54-5.43-8a41.31,41.31,0,0,0-4.31,2.69q-1.36,1.74-2.62,3.13a7.5,7.5,0,0,1-3.13,2.33,2.87,2.87,0,0,1-1.16.1q-1.14-.13-1.84-2.41a10.44,10.44,0,0,1,5.38-4.37L155,111.4a24.17,24.17,0,0,0-3.42-6.44q-3.34-4.77-4.06-6.16a13.53,13.53,0,0,1-1-2.32,13.15,13.15,0,0,1-.56-4.32q.12-3.49,4-8A16.69,16.69,0,0,1,153.79,82q.89-.37,1.54-.57,4-1.25,5.05.64c.41.8,0,2.26-1.31,4.38a9.17,9.17,0,0,1-2.85.49c-.32,0-1.27-.12-2.83-.35q-6.73,2.08-4.27,10,1.49,4.84,7.4,13.21a10.5,10.5,0,0,0,1.08-.27q2.57-.79,6.56-4.69t6.23-4.59a7.85,7.85,0,0,1,1.18-.27c.91.28,1.37.63,1.39,1.05A2.58,2.58,0,0,1,172.58,102.45Z"/><path d="M245.05,85.13a3.62,3.62,0,0,1-2,2.36,2,2,0,0,1-1,0c-1.1-.22-2.44-.42-4-.61a24.62,24.62,0,0,0-11,7l-9,9.75q-4.13,1.28-6.55-1-1.59-1.48-3.47-6.11a4,4,0,0,1,1-2.52,8.61,8.61,0,0,1,2.6-1.1,3.93,3.93,0,0,1,2.19,2.49,8.75,8.75,0,0,1,.28,1.63,9.3,9.3,0,0,0,.28,1.63,4.51,4.51,0,0,0,1.3,2.12,15.81,15.81,0,0,0,1.61-.34l5.76-5.75a59.44,59.44,0,0,1,6.06-5.43,28.51,28.51,0,0,1,8.75-4.77,15.63,15.63,0,0,1,6.59-.55A7.44,7.44,0,0,0,245.05,85.13Z"/><path d="M307.13,35.58q-3.57,3.2-11,9t-11,9.06q1.39,5.66,2.57,12.63l5.86-4.78A19.89,19.89,0,0,1,300,57.76l.32.29A12.34,12.34,0,0,1,295,64.63q-5.37,3.66-6.69,5.36a49.19,49.19,0,0,0,1.44,7c.76,2.89.62,4.5-.42,4.82a1.36,1.36,0,0,1-.37,0,5.85,5.85,0,0,1-.69-1.6q-.34-1.12-2.15-7.39l-1.4,0-1.41,0q-.55-1.78,1.72-4.38-1.42-5.64-2.83-11.71-5.91,1.83-10.6,10.84a8.07,8.07,0,0,1-1.41.34,13.83,13.83,0,0,0-.62-1.51,13.82,13.82,0,0,1-.61-1.5,4.11,4.11,0,0,1,.12-2.56Q290,44.58,306.73,34.64A3.72,3.72,0,0,0,307.13,35.58Z"/><path d="M335.93,64.53a6.94,6.94,0,0,1-3.11,2.58,2.72,2.72,0,0,1-2.74-.7,61.73,61.73,0,0,0-5.84-4.57c-.65.21-1.26,1.13-1.86,2.78a41.63,41.63,0,0,1-1.83,4.54,10,10,0,0,1-6.42,5.28,9.83,9.83,0,0,1-8.3-1.22q-1.91,0-4.59-5.44a2,2,0,0,1,.29-2.1,13.36,13.36,0,0,1,1.89-1.29,6,6,0,0,1,2.84,3.45,5.57,5.57,0,0,1,.19.81q.48,2.8,1.94,3.15a12.55,12.55,0,0,0,6.4.29A3.66,3.66,0,0,0,317.22,70q1.2-2.79,4.44-9.71a13,13,0,0,1,2.77-1.08A63.61,63.61,0,0,0,331,63.13a24.74,24.74,0,0,1,2.83-.26A2.62,2.62,0,0,1,335.93,64.53Z"/><path d="M376,52.5a4.71,4.71,0,0,1-.46.7,19,19,0,0,1-4.7-2.85,12.09,12.09,0,0,0-5.12-2.46A19,19,0,0,0,359,51a29.25,29.25,0,0,0-4.33,4.4,63.27,63.27,0,0,1-4.86,5.32l-1.42.43A13.15,13.15,0,0,1,344,57a18.42,18.42,0,0,1-2.76-5.39L342,51a4.44,4.44,0,0,1,1.55-.71,9.26,9.26,0,0,1,2.87,2.48l.16.21,2.14,2.83c.85-.29,2.22-1.55,4.13-3.8a30.06,30.06,0,0,1,5.1-5.07,15.78,15.78,0,0,1,2.25-.88,13.83,13.83,0,0,1,7.8-.17Q372.94,47.22,376,52.5Z"/><path d="M409.55,1.72l1.3,17.71q.4,5.5.55,8.82.31,6.67-.12,8.22a4.49,4.49,0,0,1-2.12.14q.65-.75-1.3-16.91L406.68,10q-.88-7.13-.51-9.19c1.12-.43,2-.78,2.53-1a1.07,1.07,0,0,1,.39.43A15.21,15.21,0,0,1,409.55,1.72Zm5.27,40c-.63,1.94-1.41,3-2.34,3.21a2,2,0,0,1-2.67-1.54,4.06,4.06,0,0,1-.06-1.86c.19-1.13,1.13-2.08,2.81-2.83a4.6,4.6,0,0,0,.69,1.22,3.76,3.76,0,0,0,1.2.61Z"/><path d="M204.07,105.51s1.44-12-7.81-15.56S179,93.32,179,93.32s-3.16.61-1.38,3.43c0,0-5.87,17.22,11.57,20,0,0,7.31,1.22,13.73-7.08a1.88,1.88,0,0,0,1.83-1.22C205.18,107.22,204.07,105.51,204.07,105.51Zm-1.73,3.1a5.53,5.53,0,0,0-.83-3.94c-.21-.31-.16.31-.16.31a5,5,0,0,1,.41,4.15c-3.73,5.7-11.2,6.63-11.2,6.63-6.12-5-4.93-12.6-4.93-12.6a2.06,2.06,0,0,0,1.61-.57c.93-.72-.11-1.14-.11-1.14a7.57,7.57,0,0,1-1.61.15c-1,0-.83-1.6-.83-1.6-2.48-.16-.37,2.69-.37,2.69-1.71,5.82,4,12.71,4,12.71-15.09-3.37-9.38-18.71-9.38-18.71.26-.83,3.43-1.66,4.15-1.71s0-.37,0-.37c-1.24-.52-4,1.4-4,1.4s-.94.78-.51-.46,5.18-2.39,5.86-2.39.32-.36.32-.36c-1.2-.67-4.26,1.09-4.26,1.09,3.52-2.44,8.82-5.71,16.07-2.28s6.23,13.17,6.23,13.17a6.09,6.09,0,0,0-1.46-2.7c-.46-.37-.26.42-.26.42a19.21,19.21,0,0,1,1.92,3.63C204.25,108.87,202.33,108.61,202.33,108.61Z"/><path d="M220,305l-2.8-1.66a46.73,46.73,0,0,1-3.56-17.73q-.07-9.34.3-18.64l-.58,0q-7.28,4.16-14.17,8.62a144.55,144.55,0,0,0-13.37,9.83l-2.61,3.9a8.73,8.73,0,0,1-2.55,1.13,5.23,5.23,0,0,1-2.77,0l-2.8-1.66a8.74,8.74,0,0,1-1.13-2.55,6.36,6.36,0,0,1,.07-3.05l2-3.07.59,0,2-3.06a147,147,0,0,1,15.51-11.29q8.09-5.11,16.31-10.07l-7.23-.8-21,0a22.58,22.58,0,0,1-3.41-1.11,10.47,10.47,0,0,1-3.07-2,8.65,8.65,0,0,1-1.13-2.56,5.27,5.27,0,0,1,0-2.76l1.66-2.8a8.66,8.66,0,0,1,2.56-1.13,6.31,6.31,0,0,1,3.05.07,7.46,7.46,0,0,0,2.56.91c1,.16,1.92.28,2.89.35q6.72-.11,13.71,0t14,.26l1.09-7.21-7.81-.85a1.63,1.63,0,0,1-.4,1.58,7.49,7.49,0,0,0-1,1.24,8.67,8.67,0,0,1-2.56,1.13,5.34,5.34,0,0,1-2.76,0l-2.8-1.65a32.85,32.85,0,0,1-3.49-8.27,22.56,22.56,0,0,1-.54-8.93l-1.45-.1a94.91,94.91,0,0,0-12,1q-5.89.89-12,1.33l-2.8-1.65a9.07,9.07,0,0,1-1.13-2.56,5.28,5.28,0,0,1,0-2.76l1.66-2.8a68.39,68.39,0,0,1,13.89-2.81q7.05-.67,14.34-.74l2-11.52-.58,0-2.92.09-8.91-5.88a46,46,0,0,0-9.29-4.73,8.93,8.93,0,0,1-1.13-2.56,5.4,5.4,0,0,1,0-2.77l1.66-2.8a5.82,5.82,0,0,1,3.28-1.08q1.75,0,3.49.11a29,29,0,0,1,8.44,4.38q3.88,2.9,7.77,5.5,1.19-4.29,2.22-8.73a18.13,18.13,0,0,1,4.21-8,45.75,45.75,0,0,1,14.22-5.41,132.78,132.78,0,0,1,15.17-2.14l2.8,1.66a8.6,8.6,0,0,1,1.13,2.56,5.34,5.34,0,0,1,0,2.76l-1.66,2.79a74.36,74.36,0,0,1-11.87,3,66.53,66.53,0,0,0-12.17,3.22l-1,2,.86.36,2.94-.38,14.79,1a41,41,0,0,0,9.23,1.38,18.7,18.7,0,0,1,8.86,2.52A11.37,11.37,0,0,1,250,190a6,6,0,0,1,.07,3.21l-1.65,2.8-.58,0-.75,2.28.27.31q6.32-2.76,12.67-6a25.72,25.72,0,0,1,13.6-2.68l2.8,1.65a9,9,0,0,1,1.14,2.55,5.37,5.37,0,0,1-.05,2.77l-1.65,2.8a75.42,75.42,0,0,0-13.43,4.44q-6.61,2.88-13.27,6.21,6.16,3.64,12.65,6.72t12.66,6.43a8.81,8.81,0,0,1,1.14,2.56,5.37,5.37,0,0,1,0,2.77l-1.66,2.79a8.6,8.6,0,0,1-2.56,1.13,6.32,6.32,0,0,1-3.06-.08l-20.87-9.92-.12,1.74.22,5.26-.4,1.43a3.46,3.46,0,0,1,.88,2.1,20.65,20.65,0,0,1,0,2.62l-1.65,2.8a6.38,6.38,0,0,1-2.4,1c-.79.14-1.68.27-2.65.4L228,238.25a27,27,0,0,0-1.23,3,7.74,7.74,0,0,0-.38,3.32l22.33,1.58.27.31,11.89.84a26.49,26.49,0,0,0,6.8.77,10.76,10.76,0,0,1,6.43,1.91,8.73,8.73,0,0,1,1.13,2.56,5.38,5.38,0,0,1-.05,2.76l-1.65,2.8a10.76,10.76,0,0,1-6.22,1.31l-7-.49-.27-.31-11.89-.84-.27-.31-18-1.27-.31.27q6.59,5.71,13.81,10.88t14.14,10.33a7.41,7.41,0,0,1,1.54,2.87,6.52,6.52,0,0,1,.06,3.37l-1.66,2.79a8.67,8.67,0,0,1-2.56,1.13,5.35,5.35,0,0,1-2.77-.05l-2.8-1.65q-5.78-4.78-11.88-9.15t-12.18-9.17l-.22,3.19c-.1,4.08-.13,8.16-.13,12.23a75.72,75.72,0,0,0,1,12.31l.58,0a8.65,8.65,0,0,1,1.13,2.56,5.34,5.34,0,0,1-.05,2.77L226,303.7a11.59,11.59,0,0,1-2.71,1.26A5.94,5.94,0,0,1,220,305Zm16.22-77,.14-2-.6-7.92a117.31,117.31,0,0,1-11.73-3.16,61.11,61.11,0,0,0-11.77-2.58,5,5,0,0,1-2.53.83,23.94,23.94,0,0,1-2.77,0l-.27-.31-.6,4.33,0,7.58.87.06.32-.27,12.46.88Zm-1.09-21.64.76-10.74-6.05-1-14.79-1-3.25.65-.33.56-2.41,1-1,5.76.88.06a5.89,5.89,0,0,1,3.1-.65l3.33.24Zm-24.16,49-.27-.31-.31.27.27.31Z"/><path d="M456,244.14a13.76,13.76,0,0,1-1.69-1.39,10.75,10.75,0,0,1-1.31-1.57,8,8,0,0,1-.31-2.65,5.06,5.06,0,0,1,.83-2.5l2.29-2.08a46.91,46.91,0,0,1,13.71,3.39c4.53,1.87,9.11,3.51,13.71,4.9l1.4-3.61-.15-.36,5-12.91,3.36-9.42-3.63-1.4-.36.16-12.91-5L473,208.8l-2.09-2.29a8.44,8.44,0,0,1-.31-2.65,5.26,5.26,0,0,1,.82-2.49l2.31-2.1a12,12,0,0,1,3-.15,22.33,22.33,0,0,1,3.1.46l12.91,5,4,1.24,7.76-18.39L478,175.34c-3.1,3.35-6.06,6.87-8.85,10.54s-5.73,7.29-8.73,10.9a8.9,8.9,0,0,1-2.65.3,5,5,0,0,1-2.5-.84L453.2,194a8.25,8.25,0,0,1-.32-2.67,5.93,5.93,0,0,1,.93-2.75q8.57-12.13,18.3-23.68a119.83,119.83,0,0,1,22.07-20.42,8.54,8.54,0,0,1,2.66-.32,5.19,5.19,0,0,1,2.5.84l2.08,2.3a8.45,8.45,0,0,1,.3,2.65,5.9,5.9,0,0,1-.91,2.77q-4.21,3.12-8.17,6.48a59.11,59.11,0,0,0-7.36,7.42l23.44,10.89a102.36,102.36,0,0,0,4.81-9.28,29.71,29.71,0,0,1,5.64-8.36,7.82,7.82,0,0,1,2.65-.31,5,5,0,0,1,2.51.82l2.07,2.31a4.82,4.82,0,0,1,.34,2.95,9.48,9.48,0,0,1-1.15,3l-6.79,12.82,17.31,6.74c2.29,1.28,4.72,2.54,7.33,3.74a22.16,22.16,0,0,1,6.65,4.69,8.41,8.41,0,0,1,.31,2.65,5,5,0,0,1-.82,2.5l-2.31,2.09a4.07,4.07,0,0,1-2.21.33c-.76-.09-1.51-.21-2.26-.3l-10.61-5.61-17.58-6.84L507,209.25l.16.38L525,216.55l2.09,2.3a8.24,8.24,0,0,1,.3,2.65,5.27,5.27,0,0,1-.82,2.52l-2.3,2.08a4.12,4.12,0,0,1-2.21.33c-.77-.09-1.52-.18-2.28-.29L503,219.6l-3.62,9.31.16.35-5,12.93-1.15,3.7,11.12,4.33,10.37,3.15,2.09,2.3a8.45,8.45,0,0,1,.29,2.65,5.07,5.07,0,0,1-.81,2.5l-2.31,2.09a15.08,15.08,0,0,1-6.86-.74,53.58,53.58,0,0,0-6.71-1.87l-14.72-5.74Z"/><path d="M445.73,114.15a12,12,0,0,0-1.73-3.39l-3.91-2-7.9.27-7.51-.13a40.71,40.71,0,0,1,2.49-7.67,77.72,77.72,0,0,1,3.68-7.24,8.49,8.49,0,0,0-.13-4.15A12.29,12.29,0,0,0,429,86.4l-3.93-2a7.1,7.1,0,0,0-3.75.13,11.65,11.65,0,0,0-3.39,1.72A30.08,30.08,0,0,0,412,96.79q-1.87,5.91-4,11.39l-26-2a39.54,39.54,0,0,1,1.51-7.29A56.68,56.68,0,0,1,386.24,92a8.6,8.6,0,0,0-.13-4.15,11.38,11.38,0,0,0-1.72-3.39l-3.91-2a7.18,7.18,0,0,0-3.75.13,12.24,12.24,0,0,0-3.39,1.73,26.67,26.67,0,0,0-4.33,10c-.7,3.54-1.5,7-2.34,10.43l-13.41-1.8a36.31,36.31,0,0,0-3.94.13,5.78,5.78,0,0,0-3.59,1.71h-.4l-.4.78-.4.39-.11-.11-1.12,2.86a7.1,7.1,0,0,0,.13,3.76,11.78,11.78,0,0,0,1.71,3.39,20.1,20.1,0,0,0,8.84,2.91c3.29.31,6.52.63,9.68.95l-.1,6.41c-.85-.06-1.69-.12-2.55-.12-13.52,0-24,7.53-26.58,9.62A8.45,8.45,0,0,0,329.1,140a7.49,7.49,0,0,0,.34,6.35A49.93,49.93,0,0,0,327.82,162c-.47-3-1-6.06-1.45-9.13a68.71,68.71,0,0,0-7.9-23.65l15.69-16.74,9.59-7h.4l.81-1.17.11.11,1.12-2.85a7.24,7.24,0,0,0-.13-3.76,12,12,0,0,0-1.72-3.38l-3.91-2a12.92,12.92,0,0,0-9,3.2,81.23,81.23,0,0,1-7.8,6L311.2,114.49l-5-6.41a38.7,38.7,0,0,0-4.28-3.84,16.65,16.65,0,0,0-4.69-2.63,7.18,7.18,0,0,0-3.75.13,12.4,12.4,0,0,0-3.4,1.73l-2,3.91a7.19,7.19,0,0,0,.15,3.77,11.48,11.48,0,0,0,1.73,3.39,18.73,18.73,0,0,1,5.65,4.63,49.79,49.79,0,0,1,4.44,6.19q-7.25,8.59-15.1,16.94a107.64,107.64,0,0,0-13.53,17.76,7.3,7.3,0,0,0,.13,3.76,11.73,11.73,0,0,0,1.73,3.38l3.91,2a29.58,29.58,0,0,0,3.57-.14,4.7,4.7,0,0,0,2.78-1.33q5.25-6.64,11.08-13.26T306,141.27l1.18,0a41.69,41.69,0,0,1,4.31,14.49q.86,7.72,2.33,14.86l0,2L280.1,203.28c-1.08,1.3-2.16,2.59-3.23,3.89a13.71,13.71,0,0,0-2.44,4.31,7.08,7.08,0,0,0,.13,3.76,12.19,12.19,0,0,0,1.71,3.38l3.94,2a29.94,29.94,0,0,0,3.54-.14,4.65,4.65,0,0,0,2.78-1.33l4.05-5.09,23.66-21.34.39.4-.45,27.66-2.65,16.55a23.23,23.23,0,0,0-2.23,3.52,7.68,7.68,0,0,1-3,3.11l-2,3.92a7.32,7.32,0,0,0,.13,3.76,12.26,12.26,0,0,0,1.73,3.39,16.76,16.76,0,0,0,2.55,1.41,19.21,19.21,0,0,0,3,1c1.06-.25,2.18-.5,3.37-.73a6,6,0,0,0,3-1.54,30.94,30.94,0,0,0,8.56-16.06q1.72-9.06,3.06-18.12l.72-43.45c-.5-2.87-.91-5.79-1.38-8.67a29.72,29.72,0,0,0,3.22,7.93,28.67,28.67,0,0,0,12,10.84c-.18,2.13-.38,4.25-.63,6.32q1,11.48,1.41,22.94a63.54,63.54,0,0,0,4.57,21.81l3.91,2,3.57-.34,3.15.84,4.35-.32,24.51.41,31.54,3.28c1.06-.25,2.18-.48,3.37-.73a5.86,5.86,0,0,0,3-1.53l2-3.91-.35-3.58a110.38,110.38,0,0,0,6.2-28.73,206.12,206.12,0,0,1,4.65-29.55l.79,0,2-3.91a7.24,7.24,0,0,0-.16-3.77,11.76,11.76,0,0,0-1.71-3.39l-3.92-2-21.72-.36-.39-.41-21.65-.36c.44-9.12-2.1-23.88-13.78-31.46l.16-9.86,24.85,2-4.66,19.28a8.64,8.64,0,0,0,.13,4.13,11.87,11.87,0,0,0,1.72,3.39l3.92,2a7.22,7.22,0,0,0,3.76-.13,12.27,12.27,0,0,0,3.4-1.72,50.07,50.07,0,0,0,4.15-12.57,124.4,124.4,0,0,1,3.38-13.38l12.65.21a24,24,0,0,0,11.5-2.57l2-3.93A7.18,7.18,0,0,0,445.73,114.15ZM417.5,221.35a10,10,0,0,1-3.08,6.67l0,.78-18.13-1.88-.28-7.51.13-7.5,20.51,1.91.79-.38.79,0C417.91,216.09,417.68,218.71,417.5,221.35Zm-21.24-41.84.43-1.57,17.38.28,9.07.94-2.64,16.94-.05,2.76L396,196.5Zm-15.39,46.36-16.18-.26-.41.4-2.77-.46-1.72-14.65v-.77l20.93.34.24,9.09Zm-22-31.57.2-2.33.77,0c3.82,0,12.16-.93,20.95-7.73L380.59,195l-19.75-.33-.41.39ZM386.45,163a13,13,0,0,0-3.1-5.73c-1-.77-.55.88-.55.88,1.55,1.66,4.08,7.71,4.08,7.71,2.64,5.84-1.43,5.29-1.43,5.29a11.77,11.77,0,0,0-1.76-8.37c-.44-.66-.34.67-.34.67a10.59,10.59,0,0,1,.88,8.81c-7.91,12.1-23.77,14.09-23.77,14.09-13-10.56-10.47-26.75-10.47-26.75s1.44.34,3.42-1.21-.23-2.42-.23-2.42a16,16,0,0,1-3.41.32c-2.08,0-1.76-3.4-1.76-3.4-5.28-.32-.77,5.72-.77,5.72-3.63,12.34,8.48,27,8.48,27-32-7.15-19.93-39.72-19.93-39.72.55-1.77,7.28-3.53,8.81-3.64s.1-.77.1-.77c-2.64-1.1-8.58,3-8.58,3s-2,1.65-1.1-1,11-5.07,12.43-5.07.68-.76.68-.76c-2.54-1.43-9,2.32-9,2.32,7.49-5.18,18.72-12.12,34.12-4.86S386.45,163,386.45,163Z"/><polygon points="345.33 104.78 345.05 104.49 344.94 104.78 345.33 104.78"/><polygon points="344.13 105.55 344.13 105.56 344.42 105.84 344.53 105.56 344.13 105.55"/><path class="cls-1" d="M77,232.53l-2.79-.36c-2.33,1-4.65,2-6.95,3.07a41.11,41.11,0,0,0-6.46,3.7,10.9,10.9,0,0,1-2.48-3.69c-.57-1.4-1.18-2.79-1.84-4.17l-.82-2.39a41.5,41.5,0,0,1,7.43-2.83,15,15,0,0,0,6.78-3.94l.37-2.8a4.56,4.56,0,0,0-.9-2.22,7.41,7.41,0,0,0-1.78-1.66l-2.8-.37-10.49,3.63-.15.32-2.15.74-3.44-8.42-2.4-7.71,1.76-.33c2.22-.77,4.5-1.52,6.84-2.23a11,11,0,0,0,5.54-3.66l.37-2.79a4.61,4.61,0,0,0-.9-2.22,7.35,7.35,0,0,0-1.78-1.66l-2.79-.37L44.63,193.8l-9.32,2.42-12.4,4.28-2,2-.37,2.8a4.66,4.66,0,0,0,.9,2.23,7.37,7.37,0,0,0,1.78,1.66,9.67,9.67,0,0,0,1.83.29,11.93,11.93,0,0,0,2,0l9.54-3.3,2.56,8.19,2.46,5.56,1.15,3.34a21.38,21.38,0,0,0-5.72,2.37,18,18,0,0,0-4.43,3.8l-.37,2.8a4.7,4.7,0,0,0,.9,2.23A7.58,7.58,0,0,0,35,236.11l2.8.37a6.69,6.69,0,0,0,2.7-1.06,24.08,24.08,0,0,0,2.21-1.7l3.82-1.32c.87,2,1.7,4,2.46,6A22.23,22.23,0,0,0,52,243.83a19,19,0,0,1-4.88,2.49,9.1,9.1,0,0,0-4.4,3.12l-.37,2.8a4.57,4.57,0,0,0,.91,2.23,7.82,7.82,0,0,0,1.78,1.66l2.79.36a113.75,113.75,0,0,0,16-8.08q7.61-4.63,15.38-9.19l.37-2.8a4.53,4.53,0,0,0-.9-2.23A7.7,7.7,0,0,0,77,232.53Z"/><path class="cls-1" d="M70.89,187.92a11,11,0,0,0,6.26-.84,27,27,0,0,1,6.16-1.87l14.31-4.95.32.16,11.21-3.88,1.75-1.13a3.77,3.77,0,0,0,1.34-1.53l.36-2.8a4.56,4.56,0,0,0-.9-2.22,7.48,7.48,0,0,0-1.77-1.66l-2.8-.37-12.41,4.29L94.4,171l-14.31,4.94-.32-.15c-2.07.71-4.14,1.39-6.24,2a9.25,9.25,0,0,0-4.95,3.44l-.36,2.8a4.56,4.56,0,0,0,.9,2.22A7.76,7.76,0,0,0,70.89,187.92Z"/><path class="cls-1" d="M174.8,231.44l-.32.34c-.49.48-1.34.31-1.82.56l-.67-.26-.2.5c-.21,0-.36.57-.59.2l-.06-.28c-.22-.41-.49-.28-.75-.62l-.41.45-.19-.06c-.51.07-.29,1.14-.44,1.7-.28-1.08-.78-.88-1.15-.8-.18-.79-.5-1.06-.86-1.13l-.46-.92-.07.11c-.25-.54-.58-.38-.9-.51l-.53.86c-.24-.71-.85-.75-1.15-.46l-.42-.88-.12,0-.53-.2c-.35-.32-1-.59-1.22.07l-.44-1-.88-.37-.38.69V230c-.48-.18-1.09-.31-1,.76l-.21.42-.14-.31c-.5-.29-1-.17-1.14.63l-.6-.9-.62-.12c-.37.18-.38.92-.41,1.64-.31,0-.46.53-.58,1l-.52-.2-.52,1v2.19l-.57-.75-.62-.08-.32.21-.37,1.49-.09,1.2.06.28-.11.26,0,1.53-.17,1.46-.23,1c-.31-1.82-.56-3.29-.88-5.22l-.14-.21c-.09-.65-.34-.76-.49-1.2l-.19-.07-.11-.32c-.5-.27-1.24-.5-1.44.44h-.11l-.16.79c-.06-.07-.09-.17-.15-.23a6.62,6.62,0,0,0-2.18-1.65,77,77,0,0,1-9.36,1.1,21.37,21.37,0,0,1-9.23-1.61,50.19,50.19,0,0,1-6.34-7.15,24.28,24.28,0,0,1-4-8.77q-1.41-4.85-2.7-9.74a54.7,54.7,0,0,1-1.66-9.84l14.31-4.94,1.74-1.14a3.7,3.7,0,0,0,1.35-1.54l.37-2.8a4.64,4.64,0,0,0-.91-2.22,7.41,7.41,0,0,0-1.78-1.66l-2.8-.37L87,197.55q-4.92,2-10,3.87a27.73,27.73,0,0,0-9,5.37l-.38,2.8a4.71,4.71,0,0,0,.9,2.23,7.58,7.58,0,0,0,1.78,1.66l2.79.36L82,210l4.77-1.64q1.25,12.11,2,24.28a144.36,144.36,0,0,0,3.5,24,21,21,0,0,0,1.35,3.14,5.93,5.93,0,0,0,2.14,2.33l2.8.37a4.55,4.55,0,0,0,2.22-.9,7.52,7.52,0,0,0,1.66-1.77,179,179,0,0,1-4-27.32q-1-14-2-27.75l7.15-2.47a38.81,38.81,0,0,0,1.55,9.87c.93,3.23,1.88,6.48,2.82,9.7l.32.15,3.3,9.54a68.29,68.29,0,0,0,5.13,6q2.7,2.81,5.77,5.48a104.16,104.16,0,0,0,11.4,2.87,20.2,20.2,0,0,0,11.35-1.12,4.69,4.69,0,0,0,2.23-.91,7.67,7.67,0,0,0,1.66-1.77l.36-2.79c0-.12-.07-.22-.1-.34.1-.49.17-1,.43-1.24l.13.36.32,1.9.61,4,.18,0c-.17.3,0,.57.07,1l.35.57.44.19.47-.18a2.43,2.43,0,0,0,.52-1.57H153l.27-1.19.1-1c.25-.66.08-2,.35-2.58l.42,3.21.68.69.53-.09.21-.51.09-1,.17.82.6.57.53-.14.27-.29.51-.23.09-.68c.21.7.66.18,1,.49.4-.48.18-1.65.3-2.48l-.12-.64.1.18,0-.67.28.9.56.42.36-.21c.33.47.65.61,1,.39l.3.42c.41.08.87.24,1.06-.28.18.65.36,1.14.72,1.21l.48-.09.36.46.48,0,.29,1.38a.67.67,0,0,0,1.15.37v-1.53c-.08-.55-.27-1.39-.32-1.85.2.77.61,1.29,1.1,1.19l.29.67c.35.17.94.33,1-.28.13-.91-.55-2.77-.67-3.93l-.11-.22,0-.23.28-.24a1,1,0,0,0,.89.7l.07.89.37.32.27-.33.11,0v-.14l.07,0V238l.16-.46.21.06.22-.42.19.25.41-.07.36-.31.14-1.17.15.26c.62.31,1.47-.17,1.23-1.31l.24-.76.29-.1h1a2.31,2.31,0,0,0,1.51-1.27l0-.66A.91.91,0,0,0,174.8,231.44Zm-26,5.06v.19l-.12-.23Zm1.68,3.59,0-.19,0,.18Zm2.19,4.22,0-.29.08.22Zm0-.8.07,0,0,.19Zm-.06-4.66-.08,0,.07-.16Zm16.78-1.74v-.19l.12.16Z"/><path class="cls-1" d="M147,165.91c-1.3,1.39-3.06,1.84-3.92,1s-.51-2.59.79-4,3.06-1.84,3.93-1S148.35,164.53,147,165.91Z"/><path class="cls-1" d="M141.84,158.47c-1.12-.37-2.52.8-3.11,2.6s-.17,3.56,1,3.93,2.51-.79,3.11-2.59S143,158.84,141.84,158.47Z"/><path class="cls-1" d="M135.51,161c-1.16-.11-2.25,1.17-2.41,2.88s.64,3.17,1.81,3.28,2.24-1.17,2.4-2.87S136.67,161.13,135.51,161Z"/><ellipse cx="145.83" cy="170.86" rx="3.09" ry="2.12" transform="translate(-75.42 132.04) rotate(-39.57)"/><path class="cls-1" d="M141.45,176.48c1.82-.65,1.28-7.5-1-8.81s-9,2.26-8.42,4.21,3.54,2.1,4.94,2.55S138.63,177.47,141.45,176.48Z"/><path class="cls-1" d="M179.43,170.12c-1.85.46-3.57-.1-3.86-1.24s1-2.46,2.82-2.92,3.57.1,3.86,1.26S181.27,169.66,179.43,170.12Z"/><path class="cls-1" d="M179.08,161c-.75-.91-2.55-.69-4,.51s-2.07,2.9-1.31,3.83,2.55.69,4-.5S179.82,162,179.08,161Z"/><path class="cls-1" d="M172.37,159.76c-.92-.73-2.52-.23-3.58,1.11s-1.17,3-.26,3.74,2.52.23,3.57-1.11S173.29,160.49,172.37,159.76Z"/><path class="cls-1" d="M178.79,173.27c-.14-1.16-1.63-1.94-3.32-1.74s-3,1.31-2.82,2.47,1.63,1.94,3.33,1.74S178.93,174.43,178.79,173.27Z"/><path class="cls-1" d="M169,176c1.89.44,5.14-5.61,3.92-8s-8.83-3-9.36-1,1.84,3.68,2.78,4.81S166.09,175.29,169,176Z"/><path class="cls-1" d="M192.92,141.41c-1.62,1-3.43,1-4.05,0s.19-2.63,1.8-3.63,3.44-1,4.06,0S194.54,140.42,192.92,141.41Z"/><path class="cls-1" d="M189.84,132.87c-1-.65-2.64.11-3.68,1.7s-1.09,3.39-.09,4,2.64-.11,3.68-1.69S190.83,133.53,189.84,132.87Z"/><path class="cls-1" d="M183.06,133.67c-1.09-.41-2.47.54-3.08,2.15s-.21,3.22.89,3.64,2.47-.55,3.07-2.15S184.16,134.08,183.06,133.67Z"/><path class="cls-1" d="M193.27,144.6c-.48-1.06-2.14-1.36-3.69-.65s-2.42,2.14-1.95,3.21,2.14,1.35,3.7.65S193.75,145.67,193.27,144.6Z"/><path class="cls-1" d="M184.75,150.16c1.93-.16,3.2-6.9,1.32-8.77s-9.32-.19-9.23,1.86,2.87,2.95,4.1,3.75S181.77,150.37,184.75,150.16Z"/><path class="cls-1" d="M222.83,154.58c-1.91,0-3.44-.95-3.45-2.13s1.53-2.15,3.43-2.16,3.45.94,3.45,2.13S224.73,154.58,222.83,154.58Z"/><path class="cls-1" d="M224.65,145.69c-.51-1.07-2.31-1.28-4-.46s-2.7,2.33-2.19,3.41,2.31,1.28,4,.47S225.15,146.76,224.65,145.69Z"/><path class="cls-1" d="M218.44,142.84c-.72-.92-2.39-.82-3.74.23s-1.85,2.65-1.14,3.57,2.39.82,3.74-.24S219.16,143.77,218.44,142.84Z"/><path class="cls-1" d="M221.47,157.49c.14-1.15-1.12-2.27-2.81-2.47s-3.18.57-3.34,1.73,1.13,2.27,2.82,2.48S221.33,158.65,221.47,157.49Z"/><path class="cls-1" d="M211.31,157.8c1.73.87,6.32-4.23,5.69-6.8s-7.86-5-8.86-3.21.92,4,1.56,5.34S208.65,156.43,211.31,157.8Z"/><path class="cls-1" d="M236.58,123.93c-1.54,1.12-3.34,1.25-4,.29s0-2.64,1.52-3.75,3.35-1.25,4-.29S238.12,122.81,236.58,123.93Z"/><path class="cls-1" d="M232.86,115.65c-1-.57-2.63.31-3.54,2s-.83,3.46.21,4,2.62-.31,3.53-2S233.89,116.23,232.86,115.65Z"/><path class="cls-1" d="M226.16,117c-1.12-.32-2.42.74-2.9,2.38s0,3.23,1.16,3.56,2.42-.73,2.89-2.38S227.29,117.3,226.16,117Z"/><path class="cls-1" d="M237.18,127.08c-.56-1-2.23-1.18-3.73-.36s-2.26,2.32-1.69,3.35,2.24,1.17,3.74.36S237.74,128.11,237.18,127.08Z"/><path class="cls-1" d="M229.11,133.28c1.92-.31,2.66-7.12.64-8.85s-9.3.53-9.06,2.56,3.09,2.72,4.38,3.42S226.16,133.72,229.11,133.28Z"/><path class="cls-1" d="M264.24,147.18c-1.9-.09-3.38-1.13-3.33-2.31s1.64-2.06,3.54-2,3.39,1.13,3.33,2.32S266.15,147.28,264.24,147.18Z"/><path class="cls-1" d="M266.55,138.41c-.46-1.1-2.25-1.41-4-.69s-2.83,2.17-2.37,3.28,2.23,1.41,4,.69S267,139.5,266.55,138.41Z"/><path class="cls-1" d="M260.5,135.22c-.67-.95-2.35-.95-3.75,0s-2,2.54-1.33,3.5,2.34,1,3.74,0S261.18,136.19,260.5,135.22Z"/><path class="cls-1" d="M262.73,150c.2-1.14-1-2.33-2.67-2.62s-3.21.39-3.43,1.55,1,2.32,2.68,2.63S262.52,151.17,262.73,150Z"/><path class="cls-1" d="M252.57,149.77c1.68,1,6.54-3.88,6-6.48s-7.57-5.43-8.67-3.7.7,4.06,1.26,5.41S250,148.26,252.57,149.77Z"/><path class="cls-1" d="M274.14,103.58c-1.57,1.06-3.39,1.12-4,.14s.07-2.64,1.65-3.7,3.39-1.13,4.06-.14S275.72,102.51,274.14,103.58Z"/><path class="cls-1" d="M270.72,95.17c-1-.6-2.64.22-3.61,1.85s-1,3.43.07,4,2.63-.21,3.6-1.84S271.72,95.79,270.72,95.17Z"/><path class="cls-1" d="M264,96.25c-1.11-.36-2.45.65-3,2.28s-.07,3.23,1,3.6,2.45-.64,3-2.27S265.09,96.62,264,96.25Z"/><path class="cls-1" d="M274.62,106.75c-.52-1-2.19-1.27-3.71-.49s-2.33,2.24-1.81,3.29,2.2,1.25,3.73.49S275.15,107.8,274.62,106.75Z"/><path class="cls-1" d="M266.35,112.65c1.92-.24,2.9-7,.95-8.82s-9.31.2-9.15,2.24,3,2.82,4.26,3.58S263.38,113,266.35,112.65Z"/><path class="cls-1" d="M539.89,251.79c-2.74.78-5.34,0-5.83-1.68s1.34-3.72,4.07-4.5,5.34,0,5.83,1.69S542.62,251,539.89,251.79Z"/><path class="cls-1" d="M538.93,238.24c-1.16-1.34-3.85-.92-6,.94s-3,4.45-1.79,5.79,3.84.92,6-.94S540.09,239.58,538.93,238.24Z"/><path class="cls-1" d="M528.84,236.63c-1.4-1-3.78-.22-5.3,1.84s-1.62,4.57-.21,5.61,3.78.22,5.3-1.84S530.25,237.67,528.84,236.63Z"/><path class="cls-1" d="M539.1,256.53c-.27-1.73-2.52-2.83-5.06-2.44s-4.36,2.1-4.1,3.83,2.53,2.82,5.06,2.43S539.36,258.26,539.1,256.53Z"/><path class="cls-1" d="M524.57,261.05c2.84.57,7.41-8.62,5.47-12.1s-13.34-4-14-1.07,2.93,5.41,4.38,7.06S520.19,260.16,524.57,261.05Z"/><path d="M296.85,266.89s4.06.25,5,2.18c0,0,2.39,1,2.89,2.08a7.4,7.4,0,0,1,2.44,2.18c.76,1.27,1.12,1.78,1.12,1.78a2,2,0,0,0,.15.86c.2.66,1.07,3.25.91,4.52a12.73,12.73,0,0,1-.41,2.08,5.3,5.3,0,0,1-.3,2.34,18.49,18.49,0,0,1-1.62,3.66,8,8,0,0,1-.91.76s.46.61-.1.76a.86.86,0,0,0-.56.81,7.65,7.65,0,0,0-1.67,1.32c-.41.56-.61.76-1,.86a12.19,12.19,0,0,0-1.73.71c-.36.2-1.68.51-2,.66s-2.08.35-2.44.51-5.43.2-5.43.2l-.3-.56a8.94,8.94,0,0,1-1.93.2c-.36-.1-.56-.51-.86-.46s-.76.15-1-.05a1.64,1.64,0,0,0-1.07-.41c-.36.05-.66-.31-.81-.35a1.44,1.44,0,0,0-.81-.2c-.4.05-.61-.25-.81-.41a2.13,2.13,0,0,0-.61-.41c-.2-.05-.66.1-1-.15a10.92,10.92,0,0,1-1.32-.91c-.46-.46-5.48-4.42-6.45-9.8s.36-7.36.36-7.36.66-1.32.76-1.62,1-.41.86-1.47,1.07-1.52,1.07-1.52,1.83-1.73,2.08-2a15.5,15.5,0,0,1,3.91-2.13c.86-.15,1.27-.1,1.42-.31a1,1,0,0,1,.86-.31c.41,0,5.54.1,5.74.05s.36.41.36.41a9.2,9.2,0,0,0,1.78.05c.36-.1,1.27-2.89,1.27-2.89a4.48,4.48,0,0,0-.36-2.34,8.22,8.22,0,0,1-.51-1.78s.2,0,.81.41a3,3,0,0,0,1.47.41s.15,1,.15,1.42,0,1.67-.41,1.93-.3.61-.41.91a3.2,3.2,0,0,1-.36,1c-.25.41.15.46.15.61s-.56.66-.71.71.66,1.27.46,1.52-1,.92-1.12.86a6.62,6.62,0,0,1-1.27-.51,2.67,2.67,0,0,0-1-.36c-.31,0-4.21,0-4.62.05s-.86.1-1.52.15-.31.25-1,.46a16.15,16.15,0,0,0-2.39.91,8,8,0,0,0-1.93,1.12,12.36,12.36,0,0,0-3,5.38c-.71,2.84-.81,6.19-.46,6.85s1.78,4.47,2,4.62,2.64,2.39,3.1,2.59,3.2,1.07,3.71,1.83,3.15.91,3.71,1a15,15,0,0,1,2.08.61,19.92,19.92,0,0,0,2.74.15,24.93,24.93,0,0,0,3.86-.41,11,11,0,0,1,1.83-.25c.41,0,1-.76,1.52-1.12s1.27-.51,1.67-1.07a23.43,23.43,0,0,0,1.42-1.93,20,20,0,0,1,1.57-2.94c.56-.56.2-.81.35-1.68a12.66,12.66,0,0,1,.26-2.39,7.76,7.76,0,0,0-1.42-6.2c-1.83-2.49-2.34-2.89-3.1-3.15s-2.69-1.73-3.4-2a4.71,4.71,0,0,0-1.17-.36c-.2,0-1-.56-1-1.12s-.36-.56-.15-.91A1.68,1.68,0,0,1,296.85,266.89Z"/><path d="M299.54,265a2.52,2.52,0,0,0,1.05-.2c.49-.21.42-.3.88-.08a2.52,2.52,0,0,0,1,.22c.44.06.35.3,1,.24a1.44,1.44,0,0,1,1.05.17c.37.17,1,0,1.07,0s0,0,0,0a5.84,5.84,0,0,0-1.24-1,4.62,4.62,0,0,0-2.36-.47c-1,0-1.15.55-2.18.36s-1-.08-1.82.33-2.14,1.16-2.45,1.26-.46.49,0,.39a4.82,4.82,0,0,0,1.57-.47c.72-.36,1.4-.61,1.4-.61A7.39,7.39,0,0,0,299.54,265Z"/><path d="M311.24,267.24c-.49.06-.5,0-.6-.24s-.49-.24-.57-.33a5.67,5.67,0,0,0-.83-.72c-.33-.22-.17-1.3-.2-1.44s-.36-.2-.38-.39,0-.36-.2-.47a1.92,1.92,0,0,1-.69-.42c-.33-.31-.74-1-.93-1.1a5,5,0,0,0-1-.56c-.33-.09-1.13-.31-1.71-.53a2,2,0,0,1-.88-.64s-1.19,0-2.21,0a4.69,4.69,0,0,0-2.8,1.21,10.47,10.47,0,0,0-1.35,1.38,3.62,3.62,0,0,1-.55,1.07c-.38.47-.32.39-.38.86a.44.44,0,0,1,0,.12c.16,0,.32.07.38.07s.22,0,.82-.41,0-.49.2-.8.08-.44.46-.85.16,0,.64-.11.09-.31.47-.58a3.83,3.83,0,0,0,.64-.31c.44-.25.06-.33,1-.46a4.67,4.67,0,0,1,2.14,0,12.61,12.61,0,0,1,2.18.88,13.82,13.82,0,0,1,2.8,2.59c.22.44.28.3.17,1.11a6.78,6.78,0,0,0,1.38,1.05,6.34,6.34,0,0,1,1.26.82,22.76,22.76,0,0,1-2.54.3,3.51,3.51,0,0,1-.8-.6,6.84,6.84,0,0,0-1.59-1.33,1.85,1.85,0,0,0-2.47.2,3.38,3.38,0,0,1-1.63.33,1.76,1.76,0,0,1-1.56-.52,2.35,2.35,0,0,0-1.68-.33l-.23,0c0,.11-.05.22-.1.37-.14.47,2.37,1.44,3.24,1.59s.38-.11.77-.3a1.3,1.3,0,0,1,1-.16c.58,0,.22-.27.49-.41a5,5,0,0,1,1.67,0c.8,0,.71.47,1,.72s.71,0,1,.3.53.19.91.19,2.51-.36,3-.3a1.91,1.91,0,0,0,1.38-.27C312.4,267.57,311.73,267.18,311.24,267.24Z"/><path d="M373.58,271.33h3a4.66,4.66,0,0,1,3,.83,3,3,0,0,1,1,2.44,3,3,0,0,1-1,2.36,3.75,3.75,0,0,1-2.61.88h-2.41v5.66h-1Zm1,.82V277h1.85a3.71,3.71,0,0,0,2.32-.6,2.23,2.23,0,0,0,.75-1.85,2.18,2.18,0,0,0-.74-1.78,3.3,3.3,0,0,0-2.15-.61Z"/><path d="M382.52,283.5V271.33h1V277h8.09v-5.63h1V283.5h-1v-5.68H383.5v5.68Z"/><path d="M394.73,277.37a6,6,0,0,1,.49-2.37,6.29,6.29,0,0,1,1.38-2,6.55,6.55,0,0,1,7-1.36A6.44,6.44,0,0,1,407,275a6.11,6.11,0,0,1,.47,2.4,6.32,6.32,0,0,1-.27,1.86,6,6,0,0,1-.81,1.67,6.27,6.27,0,0,1-2.29,2.06,6.41,6.41,0,0,1-3,.72,6.48,6.48,0,0,1-2.47-.48,6.19,6.19,0,0,1-2.06-1.36,6.29,6.29,0,0,1-1.87-4.51Zm1.07,0a5.47,5.47,0,0,0,.41,2.08,5.32,5.32,0,0,0,1.14,1.77,5.31,5.31,0,0,0,5.83,1.18,5.12,5.12,0,0,0,1.72-1.18,5.24,5.24,0,0,0,1.16-1.75,5.58,5.58,0,0,0,.4-2.09,5.48,5.48,0,0,0-.4-2.07,5.34,5.34,0,0,0-1.16-1.75,5.46,5.46,0,0,0-1.74-1.18,5.15,5.15,0,0,0-2-.42,5.09,5.09,0,0,0-2,.41,5.49,5.49,0,0,0-1.75,1.19,5.19,5.19,0,0,0-1.15,1.74A5.53,5.53,0,0,0,395.8,277.41Z"/><path d="M412.87,283.5V272.21h-4.53v-.88h10.11v.88h-4.53V283.5Z"/><path d="M419.28,277.37a6,6,0,0,1,.49-2.37,6.31,6.31,0,0,1,1.38-2,6.55,6.55,0,0,1,7-1.36,6.44,6.44,0,0,1,3.46,3.4,6.12,6.12,0,0,1,.47,2.4,6.35,6.35,0,0,1-.27,1.86,6,6,0,0,1-.81,1.67,6.27,6.27,0,0,1-2.29,2.06,6.4,6.4,0,0,1-3,.72,6.49,6.49,0,0,1-2.47-.48,6.18,6.18,0,0,1-2.06-1.36,6.29,6.29,0,0,1-1.87-4.51Zm1.07,0a5.48,5.48,0,0,0,.41,2.08,5.34,5.34,0,0,0,1.14,1.77,5.38,5.38,0,0,0,3.77,1.59,5.29,5.29,0,0,0,2.05-.41,5.11,5.11,0,0,0,1.72-1.18,5.21,5.21,0,0,0,1.16-1.75,5.55,5.55,0,0,0,.4-2.09,5.47,5.47,0,0,0-.4-2.07,5.32,5.32,0,0,0-1.16-1.75,5.46,5.46,0,0,0-1.73-1.18,5.16,5.16,0,0,0-2-.42,5.09,5.09,0,0,0-2,.41,5.48,5.48,0,0,0-1.75,1.19,5.23,5.23,0,0,0-1.15,1.74A5.52,5.52,0,0,0,420.35,277.41Z"/><path d="M444.31,282.6a11.14,11.14,0,0,1-2.18.85,8.23,8.23,0,0,1-2.08.27,7.12,7.12,0,0,1-2-.27,6.28,6.28,0,0,1-1.76-.82,6,6,0,0,1-2.08-2.25,6.28,6.28,0,0,1-.74-3,6.17,6.17,0,0,1,1.87-4.39,6.23,6.23,0,0,1,2.13-1.39,7.08,7.08,0,0,1,2.58-.46,8,8,0,0,1,2.08.28,10.8,10.8,0,0,1,2.18.86v1a12.42,12.42,0,0,0-2.28-1,7,7,0,0,0-2-.31,5.68,5.68,0,0,0-1.62.23,5.8,5.8,0,0,0-1.46.67,5.38,5.38,0,0,0-2.38,4.51,5.48,5.48,0,0,0,.41,2.08,5.34,5.34,0,0,0,1.14,1.77,5,5,0,0,0,1.75,1.18,5.81,5.81,0,0,0,2.19.41,6.65,6.65,0,0,0,1.59-.2,10,10,0,0,0,1.73-.6v-3.28h-2.57v-.85h3.52Z"/><path d="M446.93,271.33h3a4.83,4.83,0,0,1,3,.79,2.66,2.66,0,0,1,1,2.26,2.93,2.93,0,0,1-.58,1.86,3.48,3.48,0,0,1-1.75,1.11,3.25,3.25,0,0,1,.6.45,3.43,3.43,0,0,1,.49.57L456,283.5h-1.1l-1.94-3c-.38-.59-.71-1.07-1-1.45a7.49,7.49,0,0,0-.66-.82,1.81,1.81,0,0,0-.85-.45,6.83,6.83,0,0,0-1.56-.14h-1v5.85h-1Zm1,.82v4.67h.75a18.69,18.69,0,0,0,1.93-.07,3.23,3.23,0,0,0,.9-.23,2.22,2.22,0,0,0,1-.83,2.42,2.42,0,0,0,.34-1.31,2,2,0,0,0-.75-1.65,3.43,3.43,0,0,0-2.14-.58Z"/><path d="M455,283.5l5.31-12.28h.39L466,283.5h-1l-1.8-4.23h-5.35L456,283.5Zm3.17-5.06h4.67l-2.33-5.53Z"/><path d="M467,271.33h3a4.65,4.65,0,0,1,3,.83,3,3,0,0,1,1,2.44,3,3,0,0,1-1,2.36,3.74,3.74,0,0,1-2.61.88H468v5.66h-1Zm1,.82V277h1.85a3.71,3.71,0,0,0,2.32-.6,2.23,2.23,0,0,0,.75-1.85,2.18,2.18,0,0,0-.74-1.78,3.3,3.3,0,0,0-2.15-.61Z"/><path d="M475.93,283.5V271.33h1V277H485v-5.63h1V283.5h-1v-5.68H476.9v5.68Z"/><path d="M326.1,275.22h-2.38v6.18a2.17,2.17,0,0,1-2.3,2.3h-2.48v-1.89h1.68a1,1,0,0,0,.78-.3,1.06,1.06,0,0,0,.29-.79v-5.5h-1.47l-2.91,7.06a2,2,0,0,1-2,1.42h-1.88v-1.84h1c.61,0,1.06-.37,1.36-1.12l2.29-5.52h-4.56v-1.83h8.16v-2.2h2v2.2h2.38Z"/><path d="M339.47,281.39a2.26,2.26,0,0,1-.61,1.68,2.22,2.22,0,0,1-1.66.62h-8.88V271h2V281.8h6a1,1,0,0,0,.78-.31,1.08,1.08,0,0,0,.33-.79v-3.78h2Z"/><path d="M348,275.77h-1.58a3.62,3.62,0,0,1-1.33-.18,2.26,2.26,0,0,1-1-.87l-2.37-3.45h2.54l1.45,2.15a1.21,1.21,0,0,0,1.08.47H348Zm6.42-.92H354a.83.83,0,0,0-.92.66l-1.19,5.35a3.78,3.78,0,0,1-1,2.08,3.39,3.39,0,0,1-2.37.75H342v-1.85h5.51a3.28,3.28,0,0,0,1.44-.25,1.47,1.47,0,0,0,.85-1.13l1.39-5.81q.42-1.71,1.87-1.7h1.32Z"/><path d="M361.75,278.39H360a3.06,3.06,0,0,1-1.32-.22,2,2,0,0,1-1-.9L356,274.62h2.38l.93,1.38a.8.8,0,0,0,.41.39,1,1,0,0,0,.54.1h1.47Zm6.78-2.65h-.42a.86.86,0,0,0-.94.68l-1,4.45a4.37,4.37,0,0,1-1.05,2.12,3.54,3.54,0,0,1-2.37.7h-6.44v-1.84h5.52a3.15,3.15,0,0,0,1.44-.25,1.57,1.57,0,0,0,.87-1.14l1.21-4.85c.28-1.15.92-1.73,1.9-1.73h1.3Zm-6-.93h-1.43a3.42,3.42,0,0,1-1.32-.19,2,2,0,0,1-1-.92l-1.48-2.52h2.4l.76,1.28a.82.82,0,0,0,.42.4,1.36,1.36,0,0,0,.57.08h1.07Zm4.84-2-.93.46-.93-1.86.87-.44Zm1.73-.4-1,.5-1-1.89.93-.4Z"/><path d="M312.43,289.78a3.59,3.59,0,0,1,.21-1.21,3.35,3.35,0,0,1,.62-1.07,3.18,3.18,0,0,1,1-.77,3,3,0,0,1,1.35-.3,2.8,2.8,0,0,1,1.54.41,2.47,2.47,0,0,1,.94,1.06l-.52.32a2,2,0,0,0-.39-.56,2.17,2.17,0,0,0-.5-.37,2.09,2.09,0,0,0-.55-.2,2.61,2.61,0,0,0-.56-.06,2.25,2.25,0,0,0-1.07.25,2.46,2.46,0,0,0-.78.64,2.81,2.81,0,0,0-.48.89,3.24,3.24,0,0,0-.16,1,3,3,0,0,0,.19,1.07,3,3,0,0,0,.53.9,2.54,2.54,0,0,0,.8.62,2.18,2.18,0,0,0,1,.23,2.52,2.52,0,0,0,.58-.07,2.24,2.24,0,0,0,.58-.23,2.42,2.42,0,0,0,.52-.39,2,2,0,0,0,.4-.56l.55.28a2.06,2.06,0,0,1-.45.67,3,3,0,0,1-.65.49,3.25,3.25,0,0,1-.76.3,3.16,3.16,0,0,1-.79.1,2.69,2.69,0,0,1-1.27-.3,3.32,3.32,0,0,1-1-.79,3.67,3.67,0,0,1-.65-1.11A3.57,3.57,0,0,1,312.43,289.78Z"/><path d="M321.26,293.28a2.34,2.34,0,0,1-1-.2,2.42,2.42,0,0,1-.77-.55,2.52,2.52,0,0,1-.51-.81,2.68,2.68,0,0,1-.18-1,2.64,2.64,0,0,1,.18-1,2.58,2.58,0,0,1,.51-.81,2.49,2.49,0,0,1,.77-.56,2.27,2.27,0,0,1,1-.21,2.3,2.3,0,0,1,1,.21,2.48,2.48,0,0,1,.78.56,2.59,2.59,0,0,1,.51.81,2.64,2.64,0,0,1,.18,1,2.68,2.68,0,0,1-.18,1,2.52,2.52,0,0,1-.51.81,2.41,2.41,0,0,1-.78.55A2.37,2.37,0,0,1,321.26,293.28Zm-1.79-2.54a2.06,2.06,0,0,0,.14.77,2.1,2.1,0,0,0,.38.62,1.73,1.73,0,0,0,.57.42,1.63,1.63,0,0,0,.7.15,1.59,1.59,0,0,0,.7-.16,1.85,1.85,0,0,0,.57-.43,2,2,0,0,0,.39-.63,2.18,2.18,0,0,0,0-1.55,2,2,0,0,0-.39-.63,1.85,1.85,0,0,0-.57-.43,1.59,1.59,0,0,0-.7-.16,1.56,1.56,0,0,0-.69.16,1.83,1.83,0,0,0-.57.43,2.08,2.08,0,0,0-.39.64A2.14,2.14,0,0,0,319.47,290.74Z"/><path d="M325,294.7h.28a.64.64,0,0,0,.27,0,.5.5,0,0,0,.19-.21A3.51,3.51,0,0,0,326,294q.12-.3.34-.81l-2.15-4.93h.66l1.83,4.33,1.69-4.33h.62l-2.55,6.36a1.16,1.16,0,0,1-.35.48,1,1,0,0,1-.66.2h-.18l-.21,0Z"/><path d="M332.28,293.28a1.94,1.94,0,0,1-1.1-.32,2.52,2.52,0,0,1-.77-.8v3h-.64v-6.94h.58v1a2.39,2.39,0,0,1,.79-.75,2,2,0,0,1,1-.29,2.06,2.06,0,0,1,.94.21,2.42,2.42,0,0,1,.74.57,2.64,2.64,0,0,1,.49.82,2.68,2.68,0,0,1,.18,1,3,3,0,0,1-.16,1,2.51,2.51,0,0,1-.46.81,2.21,2.21,0,0,1-.71.55A2,2,0,0,1,332.28,293.28Zm-.18-.57a1.54,1.54,0,0,0,.72-.17,1.79,1.79,0,0,0,.56-.45,2,2,0,0,0,.36-.63,2.23,2.23,0,0,0,.12-.73,2,2,0,0,0-.14-.76,2.1,2.1,0,0,0-.39-.63,1.85,1.85,0,0,0-.58-.44,1.66,1.66,0,0,0-.72-.16,1.49,1.49,0,0,0-.52.1,2.11,2.11,0,0,0-.5.26,1.78,1.78,0,0,0-.4.39,1,1,0,0,0-.2.47v1.51a2.24,2.24,0,0,0,.29.49,2,2,0,0,0,.4.39,1.9,1.9,0,0,0,.48.26A1.52,1.52,0,0,0,332.1,292.71Z"/><path d="M338,288.82a2,2,0,0,0-1.14.36,1.82,1.82,0,0,0-.68.94v3.07h-.64v-4.93h.61v1.18a2.24,2.24,0,0,1,.74-.89,1.71,1.71,0,0,1,1-.32H338Z"/><path d="M338.77,287.22v-.95h.64v.95Zm0,6v-4.93h.64v4.93Z"/><path d="M342.73,293.25a2,2,0,0,1-.93-.21,2.39,2.39,0,0,1-.73-.56,2.58,2.58,0,0,1-.48-.8,2.65,2.65,0,0,1-.17-.94,2.91,2.91,0,0,1,.17-1,2.52,2.52,0,0,1,.47-.82,2.3,2.3,0,0,1,.72-.56,2.08,2.08,0,0,1,.93-.21,1.9,1.9,0,0,1,1.1.32,3,3,0,0,1,.79.8v-1h.58v4.95a2,2,0,0,1-.19.9,2,2,0,0,1-.52.66,2.21,2.21,0,0,1-.77.4,3.21,3.21,0,0,1-.93.13,2.71,2.71,0,0,1-1.37-.3,2.42,2.42,0,0,1-.84-.81l.4-.31a1.77,1.77,0,0,0,.78.7,2.46,2.46,0,0,0,1,.22,2.3,2.3,0,0,0,.68-.1,1.68,1.68,0,0,0,.56-.29,1.38,1.38,0,0,0,.38-.49,1.6,1.6,0,0,0,.14-.7v-1a2.06,2.06,0,0,1-.78.75A2.09,2.09,0,0,1,342.73,293.25Zm.18-.54a1.56,1.56,0,0,0,.56-.1,1.86,1.86,0,0,0,.5-.28,1.85,1.85,0,0,0,.37-.39,1.21,1.21,0,0,0,.2-.44V290a1.94,1.94,0,0,0-.28-.49,2,2,0,0,0-.41-.39,2,2,0,0,0-.49-.26,1.6,1.6,0,0,0-1.27.08,1.77,1.77,0,0,0-.55.46,2,2,0,0,0-.35.64,2.32,2.32,0,0,0-.12.73,2,2,0,0,0,.14.76,2,2,0,0,0,.39.63,1.88,1.88,0,0,0,.58.43A1.66,1.66,0,0,0,342.91,292.71Z"/><path d="M350.67,293.18H350v-2.75a2.22,2.22,0,0,0-.29-1.26,1,1,0,0,0-.85-.42,1.45,1.45,0,0,0-.54.11,2.06,2.06,0,0,0-.92.74,1.88,1.88,0,0,0-.26.56v3h-.64v-6.91h.64v3.09a2.23,2.23,0,0,1,.81-.88,2.1,2.1,0,0,1,1.13-.32,1.51,1.51,0,0,1,.72.16,1.34,1.34,0,0,1,.48.44,1.91,1.91,0,0,1,.27.67,4.08,4.08,0,0,1,.09.87Z"/><path d="M354.33,292.95l-.17.08-.25.09-.32.09a1.83,1.83,0,0,1-.38,0,1.37,1.37,0,0,1-.4-.06.93.93,0,0,1-.33-.17.86.86,0,0,1-.23-.3,1,1,0,0,1-.09-.42v-3.53h-.68v-.51h.68v-1.66h.64v1.66H354v.51h-1.14v3.35a.51.51,0,0,0,.19.4.67.67,0,0,0,.4.13,1.2,1.2,0,0,0,.48-.09l.26-.13Z"/><path d="M358.27,293.25a3.63,3.63,0,0,1-1.39-.26,3.33,3.33,0,0,1-1.1-.72,3.28,3.28,0,0,1-.72-1.08,3.67,3.67,0,0,1,0-2.71,3.24,3.24,0,0,1,.72-1.08,3.38,3.38,0,0,1,1.1-.71,3.63,3.63,0,0,1,1.39-.26,3.67,3.67,0,0,1,1.39.26,3.37,3.37,0,0,1,1.11.71,3.3,3.3,0,0,1,.73,1.08,3.61,3.61,0,0,1,0,2.71,3.28,3.28,0,0,1-1.84,1.8A3.67,3.67,0,0,1,358.27,293.25Zm0-.31a3.36,3.36,0,0,0,1.24-.23,3.05,3.05,0,0,0,1-.63,3,3,0,0,0,.67-1,3.13,3.13,0,0,0,.25-1.26,3.2,3.2,0,0,0-.24-1.24,2.94,2.94,0,0,0-.66-1,3.1,3.1,0,0,0-1-.65,3.44,3.44,0,0,0-2.51,0,3.09,3.09,0,0,0-1,.65,2.91,2.91,0,0,0-.66,1,3.2,3.2,0,0,0-.24,1.23,3.17,3.17,0,0,0,.24,1.23,3,3,0,0,0,.66,1,3.05,3.05,0,0,0,1,.65A3.25,3.25,0,0,0,358.27,292.94Zm.08-.92a2.26,2.26,0,0,1-1.54-.6,2.12,2.12,0,0,1-.49-.69,2.17,2.17,0,0,1-.18-.91,2.49,2.49,0,0,1,.13-.79,2.11,2.11,0,0,1,.4-.71,2,2,0,0,1,.67-.51,2.16,2.16,0,0,1,1-.2,2.26,2.26,0,0,1,1.11.27,1.58,1.58,0,0,1,.7.78l-.62.2a1,1,0,0,0-.24-.34,1.24,1.24,0,0,0-.31-.21,1.34,1.34,0,0,0-.33-.1l-.31,0a1.39,1.39,0,0,0-.66.15,1.44,1.44,0,0,0-.46.38,1.63,1.63,0,0,0-.28.53,1.94,1.94,0,0,0-.09.59,1.63,1.63,0,0,0,.14.7,1.67,1.67,0,0,0,.36.52,1.52,1.52,0,0,0,.49.32,1.39,1.39,0,0,0,.53.11,1.5,1.5,0,0,0,.72-.19,1.18,1.18,0,0,0,.52-.53l.62.18a1.37,1.37,0,0,1-.23.36,2,2,0,0,1-.4.36,2.17,2.17,0,0,1-.54.27A2,2,0,0,1,358.35,292Z"/><path d="M363,286.47l2.19,3.61,2.21-3.61h.72l-2.6,4.22v2.5h-.66v-2.52l-2.59-4.2Z"/><path d="M370.17,293.28a1.74,1.74,0,0,1-.65-.12,1.63,1.63,0,0,1-.52-.33,1.47,1.47,0,0,1-.47-1.09,1.22,1.22,0,0,1,.15-.6,1.45,1.45,0,0,1,.43-.47,2.08,2.08,0,0,1,.65-.31,3,3,0,0,1,.83-.11,4.58,4.58,0,0,1,.77.07,3.36,3.36,0,0,1,.69.19v-.44a1.43,1.43,0,0,0-.37-1,1.35,1.35,0,0,0-1-.38,2.18,2.18,0,0,0-.78.15,3.76,3.76,0,0,0-.8.44l-.23-.43a3.33,3.33,0,0,1,1.85-.64,2,2,0,0,1,1.46.52,1.93,1.93,0,0,1,.53,1.44v2.22q0,.26.24.26v.57l-.25,0a.55.55,0,0,1-.38-.12.46.46,0,0,1-.15-.34l0-.39a2.23,2.23,0,0,1-.86.68A2.64,2.64,0,0,1,370.17,293.28Zm.15-.49a2.23,2.23,0,0,0,.92-.19,1.51,1.51,0,0,0,.64-.5.59.59,0,0,0,.13-.18.47.47,0,0,0,0-.18v-.8a4,4,0,0,0-.67-.19,3.72,3.72,0,0,0-.7-.07,2,2,0,0,0-1.11.28.86.86,0,0,0-.43.75,1,1,0,0,0,.09.43,1.08,1.08,0,0,0,.25.35,1.15,1.15,0,0,0,.37.23A1.27,1.27,0,0,0,370.33,292.78Z"/><path d="M378.16,293.18h-.64v-2.75a2.4,2.4,0,0,0-.26-1.28.89.89,0,0,0-.8-.4,1.64,1.64,0,0,0-.57.1,1.89,1.89,0,0,0-.52.29,2.24,2.24,0,0,0-.43.45,1.77,1.77,0,0,0-.27.56v3H374v-4.93h.59v1.12a2.32,2.32,0,0,1,.87-.87,2.37,2.37,0,0,1,1.22-.33,1.45,1.45,0,0,1,.69.15,1.17,1.17,0,0,1,.45.43,2,2,0,0,1,.25.67,4.7,4.7,0,0,1,.08.88Z"/><path d="M381.43,293.25a2,2,0,0,1-.93-.21,2.39,2.39,0,0,1-.73-.56,2.58,2.58,0,0,1-.48-.8,2.65,2.65,0,0,1-.17-.94,2.91,2.91,0,0,1,.17-1,2.53,2.53,0,0,1,.47-.82,2.3,2.3,0,0,1,.72-.56,2.08,2.08,0,0,1,.93-.21,1.9,1.9,0,0,1,1.1.32,3,3,0,0,1,.8.8v-1h.58v4.95a2,2,0,0,1-.19.9,2,2,0,0,1-.52.66,2.21,2.21,0,0,1-.77.4,3.21,3.21,0,0,1-.93.13,2.71,2.71,0,0,1-1.37-.3,2.42,2.42,0,0,1-.84-.81l.4-.31a1.77,1.77,0,0,0,.78.7,2.46,2.46,0,0,0,1,.22,2.3,2.3,0,0,0,.68-.1,1.68,1.68,0,0,0,.56-.29,1.38,1.38,0,0,0,.38-.49,1.61,1.61,0,0,0,.14-.7v-1a2.06,2.06,0,0,1-.78.75A2.09,2.09,0,0,1,381.43,293.25Zm.18-.54a1.56,1.56,0,0,0,.56-.1,1.86,1.86,0,0,0,.5-.28,1.85,1.85,0,0,0,.37-.39,1.21,1.21,0,0,0,.2-.44V290a1.94,1.94,0,0,0-.28-.49,2,2,0,0,0-.41-.39,2,2,0,0,0-.49-.26,1.6,1.6,0,0,0-1.27.08,1.77,1.77,0,0,0-.55.46,2,2,0,0,0-.35.64,2.32,2.32,0,0,0-.12.73,2,2,0,0,0,.14.76,2,2,0,0,0,.39.63,1.88,1.88,0,0,0,.58.43A1.66,1.66,0,0,0,381.61,292.71Z"/><path d="M387.25,289.78a3.59,3.59,0,0,1,.21-1.21,3.35,3.35,0,0,1,.62-1.07,3.19,3.19,0,0,1,1-.77,3,3,0,0,1,1.35-.3,2.8,2.8,0,0,1,1.54.41,2.47,2.47,0,0,1,.94,1.06l-.52.32a2,2,0,0,0-.39-.56,2.17,2.17,0,0,0-.5-.37,2.09,2.09,0,0,0-.55-.2,2.61,2.61,0,0,0-.56-.06,2.25,2.25,0,0,0-1.07.25,2.46,2.46,0,0,0-.78.64,2.81,2.81,0,0,0-.48.89,3.24,3.24,0,0,0-.16,1,3,3,0,0,0,.19,1.07,3,3,0,0,0,.53.9,2.54,2.54,0,0,0,.79.62,2.18,2.18,0,0,0,1,.23,2.52,2.52,0,0,0,.58-.07,2.24,2.24,0,0,0,.58-.23,2.43,2.43,0,0,0,.52-.39,2,2,0,0,0,.4-.56l.55.28a2.05,2.05,0,0,1-.45.67,3,3,0,0,1-.65.49,3.25,3.25,0,0,1-.76.3,3.16,3.16,0,0,1-.79.1,2.69,2.69,0,0,1-1.27-.3,3.32,3.32,0,0,1-1-.79,3.67,3.67,0,0,1-.65-1.11A3.57,3.57,0,0,1,387.25,289.78Z"/><path d="M398.12,293.18h-.64v-2.75a2.22,2.22,0,0,0-.29-1.26,1,1,0,0,0-.85-.42,1.45,1.45,0,0,0-.54.11,2.06,2.06,0,0,0-.92.74,1.88,1.88,0,0,0-.26.56v3H394v-6.91h.64v3.09a2.24,2.24,0,0,1,.81-.88,2.1,2.1,0,0,1,1.13-.32,1.51,1.51,0,0,1,.72.16,1.34,1.34,0,0,1,.48.44,1.91,1.91,0,0,1,.27.67,4.08,4.08,0,0,1,.09.87Z"/><path d="M401.54,293.28a2.37,2.37,0,0,1-1-.2,2.41,2.41,0,0,1-.78-.56,2.58,2.58,0,0,1-.52-.82,2.66,2.66,0,0,1-.18-1,2.6,2.6,0,0,1,.18-1,2.54,2.54,0,0,1,.51-.8,2.42,2.42,0,0,1,.78-.55,2.49,2.49,0,0,1,2,0,2.35,2.35,0,0,1,.77.55,2.6,2.6,0,0,1,.68,1.77v.15a.41.41,0,0,1,0,.1h-4.22a2.07,2.07,0,0,0,.18.73,2,2,0,0,0,.4.58,1.81,1.81,0,0,0,.56.38,1.68,1.68,0,0,0,.68.14,1.74,1.74,0,0,0,.47-.07,1.9,1.9,0,0,0,.44-.18,1.62,1.62,0,0,0,.36-.28,1.2,1.2,0,0,0,.25-.36l.56.15a1.64,1.64,0,0,1-.32.5,2.24,2.24,0,0,1-.48.39,2.34,2.34,0,0,1-.61.26A2.63,2.63,0,0,1,401.54,293.28Zm1.82-2.82a2,2,0,0,0-.18-.72,2,2,0,0,0-.4-.56,1.77,1.77,0,0,0-.56-.37,1.73,1.73,0,0,0-.68-.13,1.77,1.77,0,0,0-1.24.5,1.82,1.82,0,0,0-.39.57,2.14,2.14,0,0,0-.17.72Z"/><path d="M409,293.18h-.64v-2.75a2.41,2.41,0,0,0-.26-1.28.89.89,0,0,0-.8-.4,1.64,1.64,0,0,0-.57.1,1.89,1.89,0,0,0-.52.29,2.24,2.24,0,0,0-.43.45,1.77,1.77,0,0,0-.27.56v3h-.64v-4.93h.59v1.12a2.32,2.32,0,0,1,.87-.87,2.37,2.37,0,0,1,1.22-.33,1.45,1.45,0,0,1,.69.15,1.17,1.17,0,0,1,.45.43,2,2,0,0,1,.25.67,4.7,4.7,0,0,1,.08.88Z"/><path d="M414.88,286.47h.56l2.79,6.72h-.7l-.87-2.1h-3l-.86,2.1h-.71Zm1.63,4.1-1.35-3.32-1.37,3.32Z"/><path d="M419,286.28h.64v5.79a.59.59,0,0,0,.15.43.56.56,0,0,0,.43.16l.25,0,.26-.08.11.52a2.12,2.12,0,0,1-.44.12,2.55,2.55,0,0,1-.45,0,1,1,0,0,1-.7-.25.94.94,0,0,1-.26-.7Z"/><path d="M421.51,286.28h.64v5.79a.59.59,0,0,0,.15.43.56.56,0,0,0,.43.16l.25,0,.26-.08.11.52a2.12,2.12,0,0,1-.44.12,2.55,2.55,0,0,1-.45,0,1,1,0,0,1-.7-.25.94.94,0,0,1-.26-.7Z"/><path d="M428.78,288.82a2,2,0,0,0-1.14.36,1.82,1.82,0,0,0-.68.94v3.07h-.64v-4.93h.61v1.18a2.24,2.24,0,0,1,.74-.89,1.71,1.71,0,0,1,1-.32h.12Z"/><path d="M429.56,287.22v-.95h.64v.95Zm0,6v-4.93h.64v4.93Z"/><path d="M433.53,293.25a2,2,0,0,1-.93-.21,2.39,2.39,0,0,1-.73-.56,2.58,2.58,0,0,1-.48-.8,2.65,2.65,0,0,1-.17-.94,2.91,2.91,0,0,1,.17-1,2.53,2.53,0,0,1,.47-.82,2.3,2.3,0,0,1,.72-.56,2.08,2.08,0,0,1,.93-.21,1.9,1.9,0,0,1,1.1.32,3,3,0,0,1,.8.8v-1H436v4.95a2,2,0,0,1-.19.9,2,2,0,0,1-.52.66,2.21,2.21,0,0,1-.77.4,3.21,3.21,0,0,1-.93.13,2.71,2.71,0,0,1-1.37-.3,2.42,2.42,0,0,1-.84-.81l.4-.31a1.77,1.77,0,0,0,.78.7,2.46,2.46,0,0,0,1,.22,2.3,2.3,0,0,0,.68-.1,1.68,1.68,0,0,0,.56-.29,1.38,1.38,0,0,0,.38-.49,1.61,1.61,0,0,0,.14-.7v-1a2.06,2.06,0,0,1-.78.75A2.09,2.09,0,0,1,433.53,293.25Zm.18-.54a1.56,1.56,0,0,0,.56-.1,1.86,1.86,0,0,0,.5-.28,1.85,1.85,0,0,0,.37-.39,1.21,1.21,0,0,0,.2-.44V290a1.94,1.94,0,0,0-.28-.49,2,2,0,0,0-.41-.39,2,2,0,0,0-.49-.26,1.6,1.6,0,0,0-1.27.08,1.77,1.77,0,0,0-.55.46,2,2,0,0,0-.35.64,2.32,2.32,0,0,0-.12.73,2,2,0,0,0,.14.76,2,2,0,0,0,.39.63,1.88,1.88,0,0,0,.58.43A1.66,1.66,0,0,0,433.71,292.71Z"/><path d="M441.46,293.18h-.64v-2.75a2.22,2.22,0,0,0-.29-1.26,1,1,0,0,0-.85-.42,1.45,1.45,0,0,0-.54.11,2.06,2.06,0,0,0-.92.74,1.88,1.88,0,0,0-.26.56v3h-.64v-6.91H438v3.09a2.24,2.24,0,0,1,.81-.88,2.1,2.1,0,0,1,1.13-.32,1.52,1.52,0,0,1,.72.16,1.34,1.34,0,0,1,.48.44,1.91,1.91,0,0,1,.27.67,4.08,4.08,0,0,1,.09.87Z"/><path d="M445.12,292.95,445,293l-.25.09-.32.09a1.83,1.83,0,0,1-.38,0,1.38,1.38,0,0,1-.4-.06.93.93,0,0,1-.33-.17.86.86,0,0,1-.23-.3,1,1,0,0,1-.09-.42v-3.53h-.68v-.51H443v-1.66h.64v1.66h1.14v.51h-1.14v3.35a.51.51,0,0,0,.19.4.67.67,0,0,0,.4.13,1.2,1.2,0,0,0,.48-.09l.26-.13Z"/><path d="M450.65,288.82a2,2,0,0,0-1.14.36,1.82,1.82,0,0,0-.68.94v3.07h-.64v-4.93h.61v1.18a2.24,2.24,0,0,1,.74-.89,1.71,1.71,0,0,1,1-.32h.12Z"/><path d="M453.56,293.28a2.37,2.37,0,0,1-1-.2,2.41,2.41,0,0,1-.78-.56,2.58,2.58,0,0,1-.52-.82,2.66,2.66,0,0,1-.18-1,2.6,2.6,0,0,1,.18-1,2.53,2.53,0,0,1,.51-.8,2.42,2.42,0,0,1,.78-.55,2.49,2.49,0,0,1,2,0,2.35,2.35,0,0,1,.77.55,2.6,2.6,0,0,1,.68,1.77v.15a.4.4,0,0,1,0,.1h-4.22a2.08,2.08,0,0,0,.18.73,2,2,0,0,0,.4.58,1.81,1.81,0,0,0,.56.38,1.68,1.68,0,0,0,.68.14,1.74,1.74,0,0,0,.47-.07,1.9,1.9,0,0,0,.44-.18,1.62,1.62,0,0,0,.36-.28,1.2,1.2,0,0,0,.25-.36l.56.15a1.64,1.64,0,0,1-.32.5,2.24,2.24,0,0,1-.48.39,2.34,2.34,0,0,1-.61.26A2.63,2.63,0,0,1,453.56,293.28Zm1.82-2.82a2,2,0,0,0-.18-.72,2,2,0,0,0-.4-.56,1.77,1.77,0,0,0-.56-.37,1.73,1.73,0,0,0-.68-.13,1.77,1.77,0,0,0-1.24.5,1.82,1.82,0,0,0-.39.57,2.14,2.14,0,0,0-.18.72Z"/><path d="M458.55,293.28a3.42,3.42,0,0,1-1.13-.19,2.7,2.7,0,0,1-.95-.55l.29-.44a3.21,3.21,0,0,0,.85.51,2.49,2.49,0,0,0,.92.17,1.67,1.67,0,0,0,1-.24.78.78,0,0,0,.35-.69.59.59,0,0,0-.09-.35.82.82,0,0,0-.28-.24,2.19,2.19,0,0,0-.46-.18l-.65-.17q-.43-.1-.74-.21a2.27,2.27,0,0,1-.52-.24.86.86,0,0,1-.3-.33,1.06,1.06,0,0,1-.1-.49,1.4,1.4,0,0,1,.15-.65,1.33,1.33,0,0,1,.4-.47,1.81,1.81,0,0,1,.59-.28,2.61,2.61,0,0,1,.71-.09,2.77,2.77,0,0,1,1,.18,2,2,0,0,1,.75.49l-.31.38a1.74,1.74,0,0,0-.67-.43,2.39,2.39,0,0,0-.82-.14,2,2,0,0,0-.47.05,1.13,1.13,0,0,0-.38.17.82.82,0,0,0-.26.29.86.86,0,0,0-.09.41.67.67,0,0,0,.07.32.56.56,0,0,0,.22.21,1.77,1.77,0,0,0,.38.16l.56.15q.47.11.83.23a2.64,2.64,0,0,1,.6.26,1.05,1.05,0,0,1,.36.37,1.06,1.06,0,0,1,.12.53,1.28,1.28,0,0,1-.52,1.08A2.25,2.25,0,0,1,458.55,293.28Z"/><path d="M463.57,293.28a2.37,2.37,0,0,1-1-.2,2.41,2.41,0,0,1-.78-.56,2.58,2.58,0,0,1-.52-.82,2.66,2.66,0,0,1-.18-1,2.6,2.6,0,0,1,.18-1,2.54,2.54,0,0,1,.51-.8,2.42,2.42,0,0,1,.78-.55,2.49,2.49,0,0,1,2,0,2.35,2.35,0,0,1,.77.55,2.6,2.6,0,0,1,.68,1.77v.15a.4.4,0,0,1,0,.1h-4.22a2.07,2.07,0,0,0,.18.73,2,2,0,0,0,.4.58,1.81,1.81,0,0,0,.56.38,1.68,1.68,0,0,0,.68.14,1.74,1.74,0,0,0,.47-.07,1.9,1.9,0,0,0,.44-.18,1.62,1.62,0,0,0,.36-.28,1.2,1.2,0,0,0,.25-.36l.56.15a1.64,1.64,0,0,1-.32.5,2.24,2.24,0,0,1-.48.39,2.34,2.34,0,0,1-.61.26A2.63,2.63,0,0,1,463.57,293.28Zm1.82-2.82a2,2,0,0,0-.18-.72,2,2,0,0,0-.4-.56,1.77,1.77,0,0,0-.56-.37,1.73,1.73,0,0,0-.68-.13,1.78,1.78,0,0,0-1.24.5,1.82,1.82,0,0,0-.39.57,2.14,2.14,0,0,0-.18.72Z"/><path d="M469.38,288.82a2,2,0,0,0-1.14.36,1.82,1.82,0,0,0-.68.94v3.07h-.64v-4.93h.61v1.18a2.24,2.24,0,0,1,.74-.89,1.71,1.71,0,0,1,1-.32h.12Z"/><path d="M471.64,293.18l-2-4.93h.66l1.69,4.33,1.7-4.33h.62l-2,4.93Z"/><path d="M477.26,293.28a2.37,2.37,0,0,1-1-.2,2.41,2.41,0,0,1-.78-.56,2.58,2.58,0,0,1-.52-.82,2.66,2.66,0,0,1-.18-1,2.6,2.6,0,0,1,.18-1,2.54,2.54,0,0,1,.51-.8,2.42,2.42,0,0,1,.78-.55,2.49,2.49,0,0,1,2,0,2.35,2.35,0,0,1,.77.55,2.6,2.6,0,0,1,.68,1.77v.15a.41.41,0,0,1,0,.1h-4.22a2.07,2.07,0,0,0,.18.73,2,2,0,0,0,.4.58,1.81,1.81,0,0,0,.56.38,1.68,1.68,0,0,0,.68.14,1.74,1.74,0,0,0,.47-.07,1.9,1.9,0,0,0,.44-.18,1.62,1.62,0,0,0,.36-.28,1.2,1.2,0,0,0,.25-.36l.56.15a1.64,1.64,0,0,1-.32.5,2.24,2.24,0,0,1-.48.39,2.34,2.34,0,0,1-.61.26A2.63,2.63,0,0,1,477.26,293.28Zm1.82-2.82a2,2,0,0,0-.18-.72,2,2,0,0,0-.4-.56,1.77,1.77,0,0,0-.56-.37,1.73,1.73,0,0,0-.68-.13,1.77,1.77,0,0,0-1.24.5,1.82,1.82,0,0,0-.39.57,2.14,2.14,0,0,0-.18.72Z"/><path d="M482.63,293.28a2.12,2.12,0,0,1-.95-.21,2.41,2.41,0,0,1-.75-.56,2.59,2.59,0,0,1-.49-.81,2.67,2.67,0,0,1-.18-1,2.88,2.88,0,0,1,.17-1,2.64,2.64,0,0,1,.47-.82,2.2,2.2,0,0,1,.71-.55,2,2,0,0,1,.9-.2,1.93,1.93,0,0,1,1.11.33,2.47,2.47,0,0,1,.76.79v-3H485v6.07c0,.18.08.26.23.26v.57l-.23,0a.59.59,0,0,1-.4-.15.45.45,0,0,1-.17-.36v-.48a2.16,2.16,0,0,1-.79.77A2.09,2.09,0,0,1,482.63,293.28Zm.14-.57a1.54,1.54,0,0,0,.51-.09,2.09,2.09,0,0,0,.51-.26,1.75,1.75,0,0,0,.4-.39,1,1,0,0,0,.2-.48V290a1.69,1.69,0,0,0-.27-.48,2.2,2.2,0,0,0-.41-.39,2,2,0,0,0-.5-.26,1.55,1.55,0,0,0-.52-.09,1.51,1.51,0,0,0-.72.17,1.82,1.82,0,0,0-.55.45,2,2,0,0,0-.36.64,2.26,2.26,0,0,0-.12.74,2.07,2.07,0,0,0,.53,1.39,1.87,1.87,0,0,0,.58.43A1.65,1.65,0,0,0,482.77,292.71Z"/><path d="M486.32,293.18v-.93h.56v.93Z"/></svg>